<svg width="17" height="17" viewBox="0 0 17 17" fill="none" xmlns="http://www.w3.org/2000/svg"><path fill-rule="evenodd" clip-rule="evenodd" d="M16.2923 16.2831H10.2482C9.90317 16.2831 9.62317 16.0031 9.62317 15.6581C9.62317 15.3131 9.90317 15.0331 10.2482 15.0331H16.2923C16.6373 15.0331 16.9173 15.3131 16.9173 15.6581C16.9173 16.0031 16.6373 16.2831 16.2923 16.2831Z" fill="#2E2C34"/><mask id="mask0_35_2505" style="mask-type:alpha" maskUnits="userSpaceOnUse" x="0" y="0" width="15" height="17"><path fill-rule="evenodd" clip-rule="evenodd" d="M0.666992 0.50013H14.9841V16.2831H0.666992V0.50013Z" fill="white"/></mask><g mask="url(#mask0_35_2505)"><path fill-rule="evenodd" clip-rule="evenodd" d="M9.92556 2.18067L2.07972 11.9932C1.93722 12.1715 1.88472 12.4015 1.93722 12.6223L2.50472 15.0265L5.03722 14.9948C5.27806 14.9923 5.50056 14.8848 5.64806 14.7015C8.32889 11.3473 13.4397 4.95233 13.5847 4.76483C13.7214 4.54317 13.7747 4.22983 13.7031 3.92817C13.6297 3.619 13.4372 3.3565 13.1597 3.189C13.1006 3.14817 11.6964 2.05817 11.6531 2.024C11.1247 1.60067 10.3539 1.674 9.92556 2.18067ZM2.01139 16.2832C1.72222 16.2832 1.47055 16.0848 1.40305 15.8023L0.720554 12.9098C0.579721 12.3107 0.719721 11.6923 1.10389 11.2123L8.95389 1.394C8.95722 1.39067 8.95972 1.3865 8.96305 1.38317C9.82389 0.353999 11.3806 0.202332 12.4306 1.04483C12.4722 1.07733 13.8664 2.16067 13.8664 2.16067C14.3731 2.46233 14.7689 3.0015 14.9189 3.63983C15.0681 4.2715 14.9597 4.92316 14.6122 5.474C14.5864 5.51483 14.5639 5.54983 6.62389 15.4832C6.24139 15.9598 5.66805 16.2373 5.05222 16.2448L2.01972 16.2832H2.01139Z" fill="#2E2C34"/></g><path fill-rule="evenodd" clip-rule="evenodd" d="M12.5196 7.73733C12.3863 7.73733 12.2529 7.69483 12.1388 7.60817L7.59543 4.11817C7.3221 3.90817 7.27043 3.5165 7.48043 3.2415C7.69126 2.96817 8.08293 2.91733 8.3571 3.12733L12.9013 6.6165C13.1746 6.8265 13.2263 7.219 13.0154 7.49317C12.8929 7.65317 12.7071 7.73733 12.5196 7.73733Z" fill="#2E2C34"/></svg>