<svg width="36" height="36" viewBox="0 0 36 36" fill="none" xmlns="http://www.w3.org/2000/svg">
<circle cx="18" cy="18" r="17.75" stroke="#F3F3F3" stroke-width="0.5"/>
<path fill-rule="evenodd" clip-rule="evenodd" d="M25.2925 26.2831H19.2483C18.9033 26.2831 18.6233 26.0031 18.6233 25.6581C18.6233 25.3131 18.9033 25.0331 19.2483 25.0331H25.2925C25.6375 25.0331 25.9175 25.3131 25.9175 25.6581C25.9175 26.0031 25.6375 26.2831 25.2925 26.2831" fill="#2E2C34"/>
<mask id="mask0_35_3558" style="mask-type:alpha" maskUnits="userSpaceOnUse" x="9" y="10" width="15" height="17">
<path fill-rule="evenodd" clip-rule="evenodd" d="M9.66699 10.5001H23.9841V26.2831H9.66699V10.5001Z" fill="white"/>
</mask>
<g mask="url(#mask0_35_3558)">
<path fill-rule="evenodd" clip-rule="evenodd" d="M18.9256 12.1807L11.0797 21.9932C10.9372 22.1715 10.8847 22.4015 10.9372 22.6223L11.5047 25.0265L14.0372 24.9948C14.2781 24.9923 14.5006 24.8848 14.6481 24.7015C17.3289 21.3473 22.4397 14.9523 22.5847 14.7648C22.7214 14.5432 22.7747 14.2298 22.7031 13.9282C22.6297 13.619 22.4372 13.3565 22.1597 13.189C22.1006 13.1482 20.6964 12.0582 20.6531 12.024C20.1247 11.6007 19.3539 11.674 18.9256 12.1807V12.1807ZM11.0114 26.2832C10.7222 26.2832 10.4706 26.0848 10.4031 25.8023L9.72055 22.9098C9.57972 22.3107 9.71972 21.6923 10.1039 21.2123L17.9539 11.394C17.9572 11.3907 17.9597 11.3865 17.9631 11.3832C18.8239 10.354 20.3806 10.2023 21.4306 11.0448C21.4722 11.0773 22.8664 12.1607 22.8664 12.1607C23.3731 12.4623 23.7689 13.0015 23.9189 13.6398C24.0681 14.2715 23.9597 14.9232 23.6122 15.474C23.5864 15.5148 23.5639 15.5498 15.6239 25.4832C15.2414 25.9598 14.6681 26.2373 14.0522 26.2448L11.0197 26.2832H11.0114Z" fill="#2E2C34"/>
</g>
<path fill-rule="evenodd" clip-rule="evenodd" d="M21.5196 17.7373C21.3863 17.7373 21.2529 17.6948 21.1388 17.6082L16.5954 14.1182C16.3221 13.9082 16.2704 13.5165 16.4804 13.2415C16.6913 12.9682 17.0829 12.9173 17.3571 13.1273L21.9013 16.6165C22.1746 16.8265 22.2263 17.219 22.0154 17.4932C21.8929 17.6532 21.7071 17.7373 21.5196 17.7373" fill="#2E2C34"/>
</svg>
