<svg width="21" height="20" viewBox="0 0 21 20" fill="none" xmlns="http://www.w3.org/2000/svg"><path d="M10.97 0C5.44997 0 0.969971 4.48 0.969971 10C0.969971 15.52 5.44997 20 10.97 20C16.49 20 20.97 15.52 20.97 10C20.97 4.48 16.5 0 10.97 0ZM13.97 12.23L11.07 13.9C10.71 14.11 10.31 14.21 9.91997 14.21C9.51997 14.21 9.12997 14.11 8.76997 13.9C8.04997 13.48 7.61997 12.74 7.61997 11.9V8.55C7.61997 7.72 8.04997 6.97 8.76997 6.55C9.48997 6.13 10.35 6.13 11.08 6.55L13.98 8.22C14.7 8.64 15.13 9.38 15.13 10.22C15.13 11.06 14.7 11.81 13.97 12.23Z" fill="#4FBF67"/></svg>