<svg width="16" height="16" viewBox="0 0 16 16" fill="none" xmlns="http://www.w3.org/2000/svg">
<path d="M8.00033 0.666992C8.69339 0.666992 9.26295 1.19578 9.32756 1.87192L9.33366 2.00033L9.33333 6.66633L14.0003 6.66699C14.7367 6.66699 15.3337 7.26395 15.3337 8.00033C15.3337 8.69339 14.8049 9.26295 14.1287 9.32756L14.0003 9.33366L9.33333 9.33333L9.33366 14.0003C9.33366 14.7367 8.73671 15.3337 8.00033 15.3337C7.30726 15.3337 6.7377 14.8049 6.6731 14.1287L6.66699 14.0003L6.66633 9.33333L2.00033 9.33366C1.26395 9.33366 0.666992 8.73671 0.666992 8.00033C0.666992 7.30726 1.19578 6.7377 1.87192 6.6731L2.00033 6.66699L6.66633 6.66633L6.66699 2.00033C6.66699 1.26395 7.26395 0.666992 8.00033 0.666992Z" fill="#3C3C43" fill-opacity="0.6"/>
</svg>
