<svg width="13" height="12" viewBox="0 0 13 12" fill="none" xmlns="http://www.w3.org/2000/svg"><path d="M1.5 4.5L1.05806 4.94194L0.616116 4.5L1.05806 4.05806L1.5 4.5ZM4.625 12C4.27982 12 4 11.7202 4 11.375C4 11.0298 4.27982 10.75 4.625 10.75L4.625 12ZM4.18306 8.06694L1.05806 4.94194L1.94194 4.05806L5.06694 7.18306L4.18306 8.06694ZM1.05806 4.05806L4.18306 0.933058L5.06694 1.81694L1.94194 4.94194L1.05806 4.05806ZM1.5 3.875L8.0625 3.875L8.0625 5.125L1.5 5.125L1.5 3.875ZM8.0625 12L4.625 12L4.625 10.75L8.0625 10.75L8.0625 12ZM12.125 7.9375C12.125 10.1812 10.3062 12 8.0625 12L8.0625 10.75C9.6158 10.75 10.875 9.4908 10.875 7.9375L12.125 7.9375ZM8.0625 3.875C10.3062 3.875 12.125 5.69384 12.125 7.9375L10.875 7.9375C10.875 6.3842 9.6158 5.125 8.0625 5.125L8.0625 3.875Z" fill="#2E2C34"/></svg>