<svg width="15" height="16" viewBox="0 0 15 16" fill="none" xmlns="http://www.w3.org/2000/svg">
<path d="M14.7583 5.74167L9.75833 0.741667C9.68154 0.666707 9.59099 0.607286 9.49167 0.566667C9.38834 0.524681 9.27817 0.502082 9.16667 0.5H2.5C1.83696 0.5 1.20107 0.763392 0.732233 1.23223C0.263392 1.70107 0 2.33696 0 3V13C0 13.663 0.263392 14.2989 0.732233 14.7678C1.20107 15.2366 1.83696 15.5 2.5 15.5H12.5C13.163 15.5 13.7989 15.2366 14.2678 14.7678C14.7366 14.2989 15 13.663 15 13V6.33333C15.0006 6.22366 14.9796 6.11494 14.9381 6.01341C14.8967 5.91188 14.8356 5.81953 14.7583 5.74167ZM5 2.16667H8.33333V3.83333H5V2.16667ZM10 13.8333H5V11.3333C5 11.1123 5.0878 10.9004 5.24408 10.7441C5.40036 10.5878 5.61232 10.5 5.83333 10.5H9.16667C9.38768 10.5 9.59964 10.5878 9.75592 10.7441C9.9122 10.9004 10 11.1123 10 11.3333V13.8333ZM13.3333 13C13.3333 13.221 13.2455 13.433 13.0893 13.5893C12.933 13.7455 12.721 13.8333 12.5 13.8333H11.6667V11.3333C11.6667 10.6703 11.4033 10.0344 10.9344 9.56557C10.4656 9.09672 9.82971 8.83333 9.16667 8.83333H5.83333C5.17029 8.83333 4.53441 9.09672 4.06557 9.56557C3.59673 10.0344 3.33333 10.6703 3.33333 11.3333V13.8333H2.5C2.27899 13.8333 2.06702 13.7455 1.91074 13.5893C1.75446 13.433 1.66667 13.221 1.66667 13V3C1.66667 2.77899 1.75446 2.56702 1.91074 2.41074C2.06702 2.25446 2.27899 2.16667 2.5 2.16667H3.33333V4.66667C3.33333 4.88768 3.42113 5.09964 3.57741 5.25592C3.73369 5.4122 3.94565 5.5 4.16667 5.5H9.16667C9.38768 5.5 9.59964 5.4122 9.75592 5.25592C9.9122 5.09964 10 4.88768 10 4.66667V3.34167L13.3333 6.675V13Z" fill="white"/>
</svg>
