<svg width="20" height="22" viewBox="0 0 20 22" fill="none" xmlns="http://www.w3.org/2000/svg"><path fill-rule="evenodd" clip-rule="evenodd" d="M18.8066 6.62357L18.1842 5.54348C17.6576 4.62956 16.4907 4.31427 15.5755 4.83867V4.83867C15.1399 5.0953 14.6201 5.16811 14.1307 5.04104C13.6413 4.91398 13.2226 4.59747 12.9668 4.16133C12.8023 3.8841 12.7139 3.56835 12.7105 3.24599V3.24599C12.7254 2.72918 12.5304 2.22836 12.17 1.85762C11.8096 1.48689 11.3145 1.27782 10.7975 1.27803H9.54348C9.03695 1.27802 8.5513 1.47987 8.19398 1.8389C7.83667 2.19793 7.63716 2.68455 7.63959 3.19107V3.19107C7.62458 4.23688 6.77246 5.07677 5.72655 5.07666C5.4042 5.07331 5.08844 4.9849 4.81122 4.82036V4.82036C3.89605 4.29597 2.7291 4.61125 2.20252 5.52517L1.53433 6.62357C1.00839 7.53635 1.31938 8.70256 2.22998 9.23226V9.23226C2.82189 9.57399 3.18652 10.2055 3.18652 10.889C3.18652 11.5725 2.82189 12.204 2.22998 12.5458V12.5458C1.32054 13.0719 1.00921 14.2353 1.53433 15.1453V15.1453L2.16591 16.2346C2.41263 16.6797 2.82659 17.0082 3.31618 17.1474C3.80577 17.2865 4.33062 17.2249 4.77461 16.976V16.976C5.21106 16.7213 5.73117 16.6515 6.21932 16.7822C6.70748 16.9128 7.12322 17.233 7.37415 17.6716C7.53868 17.9488 7.62709 18.2646 7.63044 18.587V18.587C7.63044 19.6435 8.48694 20.5 9.54348 20.5H10.7975C11.8505 20.5 12.7055 19.6491 12.7105 18.5961V18.5961C12.7081 18.088 12.9089 17.6 13.2681 17.2407C13.6274 16.8814 14.1155 16.6806 14.6236 16.6831C14.9452 16.6917 15.2596 16.7797 15.5389 16.9394V16.9394C16.4517 17.4653 17.6179 17.1543 18.1476 16.2437V16.2437L18.8066 15.1453C19.0617 14.7075 19.1318 14.186 19.0012 13.6963C18.8706 13.2067 18.5502 12.7893 18.111 12.5366V12.5366C17.6717 12.2839 17.3514 11.8665 17.2208 11.3769C17.0902 10.8873 17.1602 10.3658 17.4153 9.92792C17.5812 9.63829 17.8214 9.39815 18.111 9.23226V9.23226C19.0161 8.70285 19.3264 7.54345 18.8066 6.63272V6.63272V6.62357Z" stroke="#808191" stroke-width="1.5" stroke-linecap="round" stroke-linejoin="round"/><circle opacity="0.5" cx="10.175" cy="10.889" r="2.63616" stroke="#808191" stroke-width="1.5" stroke-linecap="round" stroke-linejoin="round"/></svg>