<svg width="18" height="18" viewBox="0 0 18 18" fill="none" xmlns="http://www.w3.org/2000/svg">
<path fill-rule="evenodd" clip-rule="evenodd" d="M7.88384 0.0666682L7.7968 0.0665819C7.38672 0.0659695 7.02679 0.0654321 6.70608 0.191566C6.42565 0.301858 6.1774 0.480789 5.98409 0.711951C5.76301 0.976316 5.6497 1.31794 5.5206 1.70717L5.49316 1.78977L5.2342 2.56667H2.33332H0.66665C0.33528 2.56667 0.0666504 2.8353 0.0666504 3.16667C0.0666504 3.49804 0.33528 3.76667 0.66665 3.76667H1.76757L2.2842 12.5492L2.2857 12.5747C2.33431 13.4013 2.37289 14.0572 2.4464 14.5855C2.52166 15.1264 2.63911 15.5824 2.87192 15.9963C3.25038 16.6691 3.82481 17.2107 4.51873 17.549C4.94559 17.7571 5.40765 17.8476 5.95205 17.891C6.48373 17.9333 7.14081 17.9333 7.96879 17.9333H7.99433H10.0056H10.0312C10.8592 17.9333 11.5162 17.9333 12.0479 17.891C12.5923 17.8476 13.0544 17.7571 13.4812 17.549C14.1752 17.2107 14.7496 16.6691 15.128 15.9963C15.3609 15.5824 15.4783 15.1264 15.5536 14.5855C15.6271 14.0572 15.6657 13.4013 15.7143 12.5747L15.7158 12.5492L16.2324 3.76667H17.3333C17.6647 3.76667 17.9333 3.49804 17.9333 3.16667C17.9333 2.8353 17.6647 2.56667 17.3333 2.56667H15.6667H12.7658L12.5068 1.78977L12.4794 1.70718C12.3503 1.31794 12.237 0.976316 12.0159 0.711951C11.8226 0.480789 11.5743 0.301858 11.2939 0.191566C10.9732 0.0654321 10.6132 0.0659695 10.2032 0.0665819L10.1161 0.0666682H7.88384ZM12.3193 3.76667C12.3286 3.76688 12.3378 3.76689 12.3471 3.76667H15.0303L14.5178 12.4788C14.4674 13.3365 14.4312 13.9447 14.365 14.4201C14.2999 14.8883 14.2114 15.1782 14.0821 15.408C13.8232 15.8683 13.4302 16.2389 12.9554 16.4704C12.7184 16.5859 12.4238 16.6572 11.9526 16.6948C11.4742 16.7329 10.8649 16.7333 10.0056 16.7333H7.99433C7.13511 16.7333 6.52579 16.7329 6.04735 16.6948C5.57618 16.6572 5.28153 16.5859 5.04459 16.4704C4.5698 16.2389 4.17677 15.8683 3.91782 15.408C3.7886 15.1782 3.70008 14.8883 3.63495 14.4201C3.5688 13.9447 3.53258 13.3365 3.48212 12.4788L2.96965 3.76667H5.65284C5.66213 3.76689 5.67139 3.76688 5.68063 3.76667H12.3193ZM11.5009 2.56667L11.3684 2.16925C11.1948 1.64859 11.1506 1.54789 11.0953 1.48176C11.0309 1.40471 10.9482 1.34506 10.8547 1.3083C10.7745 1.27675 10.6649 1.26667 10.1161 1.26667H7.88384C7.33502 1.26667 7.22551 1.27675 7.14529 1.3083C7.05181 1.34506 6.96906 1.40471 6.90463 1.48176C6.84933 1.54789 6.80513 1.64859 6.63158 2.16925L6.49911 2.56667H11.5009ZM7.93334 7.33333C7.93334 7.00196 7.66471 6.73333 7.33334 6.73333C7.00197 6.73333 6.73334 7.00196 6.73334 7.33333V13.1667C6.73334 13.498 7.00197 13.7667 7.33334 13.7667C7.66471 13.7667 7.93334 13.498 7.93334 13.1667V7.33333ZM10.6666 6.73333C10.998 6.73333 11.2667 7.00196 11.2667 7.33333V10.6667C11.2667 10.998 10.998 11.2667 10.6666 11.2667C10.3353 11.2667 10.0666 10.998 10.0666 10.6667V7.33333C10.0666 7.00196 10.3353 6.73333 10.6666 6.73333Z" fill="#2E2C34"/>
</svg>
